CATALOG 0000000000000
FILE "Star Wars - X-Wing Alliance (1999)(LucasArts)(DE)(Disc 2 of 2) (Track 1 of 3).bin" BINARY
  TRACK 01 MODE1/2352
    INDEX 01 00:00:00
FILE "Star Wars - X-Wing Alliance (1999)(LucasArts)(DE)(Disc 2 of 2) (Track 2 of 3).bin" BINARY
  TRACK 02 AUDIO
    INDEX 00 00:00:00
    INDEX 01 00:02:00
FILE "Star Wars - X-Wing Alliance (1999)(LucasArts)(DE)(Disc 2 of 2) (Track 3 of 3).bin" BINARY
  TRACK 03 MODE1/2352
    INDEX 00 00:00:00
    INDEX 01 00:03:00
